<svg id="Layer_1" data-name="Layer 1" xmlns="http://www.w3.org/2000/svg" viewBox="0 0 13.972 14.109">
  <title>portfolio-escape</title>
  <path d="M338.4,125.865a4.768,4.768,0,0,0-.987.011,2.865,2.865,0,0,1-1.937-.595,11.3,11.3,0,0,1-2.026-1.332,5.056,5.056,0,0,1-.912-1.169,5.36,5.36,0,0,1-.56-1.046,6.219,6.219,0,0,1-.475-1.593,11.392,11.392,0,0,1,.017-2.5,5.656,5.656,0,0,1,.614-1.735,5.876,5.876,0,0,1,1.083-1.684,5.3,5.3,0,0,1,2.135-1.591,2.991,2.991,0,0,0,1.09-.374c0.983-.791,2.1-0.294,3.143-0.392a1.538,1.538,0,0,1,.621.283,1.434,1.434,0,0,0,.293.128,5.312,5.312,0,0,1,3.4,2.428,3.912,3.912,0,0,1,.875,1.175c0.141,0.561.491,1.077,0.583,1.64a19.886,19.886,0,0,1,.05,2.033,3.479,3.479,0,0,1-.652,2.338c-0.445.614-.783,1.314-1.273,1.887a4.008,4.008,0,0,1-1.9,1.3,5.83,5.83,0,0,0-1.059.651,1.094,1.094,0,0,1-.494.124c-0.543.015-1.087,0.006-1.63,0.006v0Zm-0.047-12.554c-0.641.128-1.358,0.271-2.075,0.417a0.246,0.246,0,0,0-.1.048,11.773,11.773,0,0,0-1.342,1.083,10.054,10.054,0,0,0-1.521,1.921,4.322,4.322,0,0,0-.375,1.749,4.712,4.712,0,0,0,.728,2.662,9.015,9.015,0,0,0,1.768,2.038,3.16,3.16,0,0,0,1.24.6,15.641,15.641,0,0,0,1.713.4,0.784,0.784,0,0,0,.316-0.112,2.212,2.212,0,0,1,.538-0.171,3.9,3.9,0,0,0,2.762-1.234c0.753-.825,1.57-1.615,1.493-2.873a1.275,1.275,0,0,1,.079-0.275,3.358,3.358,0,0,0,.187-1.149,14.092,14.092,0,0,0-.611-1.946,4.733,4.733,0,0,0-1.8-2.126A5.7,5.7,0,0,0,338.355,113.311Z" transform="translate(-331.446 -111.802)" fill="#fff"/><path d="M334.843,116.622l-0.038.169c0.428,0.5.89,0.968,1.264,1.5a0.848,0.848,0,0,1,.014.769c-0.372.574-.837,1.087-1.245,1.64a0.443,0.443,0,0,0,.071.332,11.675,11.675,0,0,0,2.2-.005,2.259,2.259,0,0,0,.877-0.777,1.512,1.512,0,0,0,.19-0.4,1.911,1.911,0,0,0,1.879,1.239c0.326-.035.659,0.011,0.987-0.011a5.877,5.877,0,0,0,.7-0.131c-0.124-.135-0.251-0.268-0.372-0.406a1.142,1.142,0,0,1-.044-0.106,14.546,14.546,0,0,1-.871-1.284,1.007,1.007,0,0,1-.118-0.811,17.674,17.674,0,0,1,1.3-1.569,2.732,2.732,0,0,0-3.469,1c-0.044-.075-0.074-0.136-0.114-0.191a2.159,2.159,0,0,0-.7-0.906A17.447,17.447,0,0,0,334.843,116.622Z" transform="translate(-331.446 -111.802)"/><path d="M334.843,116.622a17.447,17.447,0,0,1,2.515.044,2.159,2.159,0,0,1,.7.906c0.04,0.055.07,0.116,0.114,0.191a2.732,2.732,0,0,1,3.469-1,17.674,17.674,0,0,0-1.3,1.569,1.007,1.007,0,0,0,.118.811,14.546,14.546,0,0,0,.871,1.284,1.142,1.142,0,0,0,.044.106c0.121,0.138.248,0.271,0.372,0.406a5.877,5.877,0,0,1-.7.131c-0.328.023-.662-0.023-0.987,0.011a1.911,1.911,0,0,1-1.879-1.239,1.512,1.512,0,0,1-.19.4,2.259,2.259,0,0,1-.877.777,11.675,11.675,0,0,1-2.2.005,0.443,0.443,0,0,1-.071-0.332c0.407-.553.873-1.066,1.245-1.64a0.848,0.848,0,0,0-.014-0.769c-0.374-.534-0.837-1.006-1.264-1.5Z" transform="translate(-331.446 -111.802)" fill="#fff"/>
</svg>
